# MagicaVoxel @ Ephtracy

# group
o 

# material
mtllib head.mtl
usemtl palette

# normals
vn -1 0 0
vn 1 0 0
vn 0 0 1
vn 0 0 -1
vn 0 -1 0
vn 0 1 0

# texcoords
vt 0.908203 0.5
vt 0.939453 0.5
vt 0.947266 0.5
vt 0.951172 0.5
vt 0.955078 0.5
vt 0.978516 0.5
vt 0.982422 0.5

# verts
v -0.5 0.1 0.5
v -0.5 0.1 0.4
v -0.5 0.7 0.5
v -0.5 0.7 0.4
v -0.4 0 0.5
v -0.4 0 0.4
v -0.4 0.1 0.5
v -0.4 0.1 0.4
v -0.4 0.1 -0.3
v -0.4 0.2 0.1
v -0.4 0.2 -0.3
v -0.4 0.3 0.3
v -0.4 0.3 0.1
v -0.4 0.3 0
v -0.4 0.3 -0.4
v -0.4 0.4 0.3
v -0.4 0.4 0
v -0.4 0.5 0.2
v -0.4 0.5 -0.4
v -0.4 0.6 0.3
v -0.4 0.6 0.2
v -0.4 0.7 0.5
v -0.4 0.7 0.4
v -0.4 0.8 0.5
v -0.4 0.8 0.3
v -0.3 0 0.4
v -0.3 0 -0.2
v -0.3 0.1 0.4
v -0.3 0.1 -0.2
v -0.3 0.2 -0.3
v -0.3 0.2 -0.4
v -0.3 0.3 0.3
v -0.3 0.3 0.1
v -0.3 0.3 -0.3
v -0.3 0.3 -0.4
v -0.3 0.3 -0.5
v -0.3 0.4 0.3
v -0.3 0.4 0.1
v -0.3 0.5 0.2
v -0.3 0.5 0.1
v -0.3 0.5 0
v -0.3 0.5 -0.1
v -0.3 0.5 -0.4
v -0.3 0.5 -0.5
v -0.3 0.6 0.3
v -0.3 0.6 0.2
v -0.3 0.6 -0.2
v -0.3 0.6 -0.4
v -0.3 0.7 0.2
v -0.3 0.7 0.1
v -0.3 0.7 0
v -0.3 0.7 -0.1
v -0.3 0.7 -0.2
v -0.3 0.8 0.5
v -0.3 0.8 0.4
v -0.3 0.8 0.3
v -0.3 0.8 -0.1
v -0.3 0.9 0.5
v -0.3 0.9 0.4
v -0.2 0 -0.2
v -0.2 0 -0.4
v -0.2 0.1 -0.2
v -0.2 0.1 -0.3
v -0.2 0.1 -0.4
v -0.2 0.1 -0.5
v -0.2 0.2 -0.3
v -0.2 0.2 -0.4
v -0.2 0.2 -0.5
v -0.2 0.3 0.1
v -0.2 0.3 0
v -0.2 0.4 0.1
v -0.2 0.4 0
v -0.2 0.5 -0.4
v -0.2 0.5 -0.5
v -0.2 0.6 -0.2
v -0.2 0.6 -0.3
v -0.2 0.6 -0.4
v -0.2 0.6 -0.5
v -0.2 0.7 -0.2
v -0.2 0.7 -0.3
v -0.2 0.8 0.4
v -0.2 0.8 0.3
v -0.2 0.9 0.4
v -0.2 0.9 0.3
v -0.1 0 -0.4
v -0.1 0 -0.5
v -0.1 0.1 -0.4
v -0.1 0.1 -0.5
v -0.1 0.6 -0.3
v -0.1 0.6 -0.4
v -0.1 0.7 -0.1
v -0.1 0.7 -0.2
v -0.1 0.7 -0.3
v -0.1 0.7 -0.4
v -0.1 0.8 0.3
v -0.1 0.8 0.1
v -0.1 0.8 -0.1
v -0.1 0.8 -0.2
v -0.1 0.9 0.3
v -0.1 0.9 0.1
v 0.1 0.3 -0.3
v 0.1 0.3 -0.4
v 0.1 0.4 -0.3
v 0.1 0.4 -0.4
v 0.2 0.2 0.2
v 0.2 0.2 0.1
v 0.2 0.2 -0.3
v 0.2 0.2 -0.4
v 0.2 0.3 0.2
v 0.2 0.3 0.1
v 0.2 0.3 0
v 0.2 0.3 -0.3
v 0.2 0.3 -0.4
v 0.2 0.4 0
v 0.2 0.4 -0.3
v -0.2 0.2 0.2
v -0.2 0.2 0.1
v -0.2 0.2 -0.3
v -0.2 0.2 -0.4
v -0.2 0.3 0.2
v -0.2 0.3 0.1
v -0.2 0.3 0
v -0.2 0.3 -0.3
v -0.2 0.3 -0.4
v -0.2 0.4 0
v -0.2 0.4 -0.3
v -0.1 0.3 -0.3
v -0.1 0.3 -0.4
v -0.1 0.4 -0.3
v -0.1 0.4 -0.4
v 0.1 0 -0.4
v 0.1 0 -0.5
v 0.1 0.1 -0.4
v 0.1 0.1 -0.5
v 0.1 0.6 -0.3
v 0.1 0.6 -0.4
v 0.1 0.7 -0.1
v 0.1 0.7 -0.2
v 0.1 0.7 -0.3
v 0.1 0.7 -0.4
v 0.1 0.8 0.3
v 0.1 0.8 0.1
v 0.1 0.8 -0.1
v 0.1 0.8 -0.2
v 0.1 0.9 0.3
v 0.1 0.9 0.1
v 0.2 0 -0.2
v 0.2 0 -0.4
v 0.2 0.1 -0.2
v 0.2 0.1 -0.3
v 0.2 0.1 -0.4
v 0.2 0.1 -0.5
v 0.2 0.2 -0.3
v 0.2 0.2 -0.4
v 0.2 0.2 -0.5
v 0.2 0.3 0.1
v 0.2 0.3 0
v 0.2 0.4 0.1
v 0.2 0.4 0
v 0.2 0.5 -0.4
v 0.2 0.5 -0.5
v 0.2 0.6 -0.2
v 0.2 0.6 -0.3
v 0.2 0.6 -0.4
v 0.2 0.6 -0.5
v 0.2 0.7 -0.2
v 0.2 0.7 -0.3
v 0.2 0.8 0.4
v 0.2 0.8 0.3
v 0.2 0.9 0.4
v 0.2 0.9 0.3
v 0.3 0 0.4
v 0.3 0 -0.2
v 0.3 0.1 0.4
v 0.3 0.1 -0.2
v 0.3 0.2 -0.3
v 0.3 0.2 -0.4
v 0.3 0.3 0.3
v 0.3 0.3 0.1
v 0.3 0.3 -0.3
v 0.3 0.3 -0.4
v 0.3 0.3 -0.5
v 0.3 0.4 0.3
v 0.3 0.4 0.1
v 0.3 0.5 0.2
v 0.3 0.5 0.1
v 0.3 0.5 0
v 0.3 0.5 -0.1
v 0.3 0.5 -0.4
v 0.3 0.5 -0.5
v 0.3 0.6 0.3
v 0.3 0.6 0.2
v 0.3 0.6 -0.2
v 0.3 0.6 -0.4
v 0.3 0.7 0.2
v 0.3 0.7 0.1
v 0.3 0.7 0
v 0.3 0.7 -0.1
v 0.3 0.7 -0.2
v 0.3 0.8 0.5
v 0.3 0.8 0.4
v 0.3 0.8 0.3
v 0.3 0.8 -0.1
v 0.3 0.9 0.5
v 0.3 0.9 0.4
v 0.4 0 0.5
v 0.4 0 0.4
v 0.4 0.1 0.5
v 0.4 0.1 0.4
v 0.4 0.1 -0.3
v 0.4 0.2 0.1
v 0.4 0.2 -0.3
v 0.4 0.3 0.3
v 0.4 0.3 0.1
v 0.4 0.3 0
v 0.4 0.3 -0.4
v 0.4 0.4 0.3
v 0.4 0.4 0
v 0.4 0.5 0.2
v 0.4 0.5 -0.4
v 0.4 0.6 0.3
v 0.4 0.6 0.2
v 0.4 0.7 0.5
v 0.4 0.7 0.4
v 0.4 0.8 0.5
v 0.4 0.8 0.3
v 0.5 0.1 0.5
v 0.5 0.1 0.4
v 0.5 0.7 0.5
v 0.5 0.7 0.4
v -0.5 0.1 0.5
v -0.5 0.7 0.5
v -0.4 0 0.5
v -0.4 0.1 0.5
v -0.4 0.7 0.5
v -0.4 0.8 0.5
v -0.3 0.8 0.5
v -0.3 0.9 0.5
v 0.3 0.8 0.5
v 0.3 0.9 0.5
v 0.4 0 0.5
v 0.4 0.1 0.5
v 0.4 0.7 0.5
v 0.4 0.8 0.5
v 0.5 0.1 0.5
v 0.5 0.7 0.5
v -0.4 0.3 0
v -0.4 0.4 0
v -0.3 0.3 0
v -0.3 0.4 0
v -0.2 0.3 0
v -0.2 0.4 0
v 0.2 0.3 0
v 0.2 0.4 0
v 0.3 0.3 0
v 0.3 0.4 0
v 0.4 0.3 0
v 0.4 0.4 0
v -0.3 0.2 -0.3
v -0.3 0.3 -0.3
v -0.2 0.2 -0.3
v -0.2 0.3 -0.3
v -0.2 0.4 -0.3
v -0.1 0.3 -0.3
v -0.1 0.4 -0.3
v 0.1 0.3 -0.3
v 0.1 0.4 -0.3
v 0.2 0.2 -0.3
v 0.2 0.3 -0.3
v 0.2 0.4 -0.3
v 0.3 0.2 -0.3
v 0.3 0.3 -0.3
v -0.1 0.3 -0.4
v -0.1 0.4 -0.4
v 0.1 0.3 -0.4
v 0.1 0.4 -0.4
v -0.5 0.1 0.4
v -0.5 0.7 0.4
v -0.4 0 0.4
v -0.4 0.1 0.4
v -0.4 0.7 0.4
v -0.3 0 0.4
v -0.3 0.1 0.4
v -0.3 0.8 0.4
v -0.3 0.9 0.4
v -0.2 0.8 0.4
v -0.2 0.9 0.4
v 0.2 0.8 0.4
v 0.2 0.9 0.4
v 0.3 0 0.4
v 0.3 0.1 0.4
v 0.3 0.8 0.4
v 0.3 0.9 0.4
v 0.4 0 0.4
v 0.4 0.1 0.4
v 0.4 0.7 0.4
v 0.5 0.1 0.4
v 0.5 0.7 0.4
v -0.4 0.3 0.3
v -0.4 0.4 0.3
v -0.4 0.6 0.3
v -0.4 0.8 0.3
v -0.3 0.3 0.3
v -0.3 0.4 0.3
v -0.3 0.6 0.3
v -0.3 0.8 0.3
v -0.2 0.8 0.3
v -0.2 0.9 0.3
v -0.1 0.8 0.3
v -0.1 0.9 0.3
v 0.1 0.8 0.3
v 0.1 0.9 0.3
v 0.2 0.8 0.3
v 0.2 0.9 0.3
v 0.3 0.3 0.3
v 0.3 0.4 0.3
v 0.3 0.6 0.3
v 0.3 0.8 0.3
v 0.4 0.3 0.3
v 0.4 0.4 0.3
v 0.4 0.6 0.3
v 0.4 0.8 0.3
v -0.4 0.5 0.2
v -0.4 0.6 0.2
v -0.3 0.5 0.2
v -0.3 0.6 0.2
v -0.2 0.2 0.2
v -0.2 0.3 0.2
v 0.2 0.2 0.2
v 0.2 0.3 0.2
v 0.3 0.5 0.2
v 0.3 0.6 0.2
v 0.4 0.5 0.2
v 0.4 0.6 0.2
v -0.4 0.2 0.1
v -0.4 0.3 0.1
v -0.3 0.2 0.1
v -0.3 0.3 0.1
v -0.3 0.4 0.1
v -0.2 0.2 0.1
v -0.2 0.3 0.1
v -0.2 0.4 0.1
v -0.1 0.8 0.1
v -0.1 0.9 0.1
v 0.1 0.8 0.1
v 0.1 0.9 0.1
v 0.2 0.2 0.1
v 0.2 0.3 0.1
v 0.2 0.4 0.1
v 0.3 0.2 0.1
v 0.3 0.3 0.1
v 0.3 0.4 0.1
v 0.4 0.2 0.1
v 0.4 0.3 0.1
v -0.2 0.3 0
v -0.2 0.4 0
v 0.2 0.3 0
v 0.2 0.4 0
v -0.3 0.7 -0.1
v -0.3 0.8 -0.1
v -0.1 0.7 -0.1
v -0.1 0.8 -0.1
v 0.1 0.7 -0.1
v 0.1 0.8 -0.1
v 0.3 0.7 -0.1
v 0.3 0.8 -0.1
v -0.3 0 -0.2
v -0.3 0.1 -0.2
v -0.3 0.6 -0.2
v -0.3 0.7 -0.2
v -0.2 0 -0.2
v -0.2 0.1 -0.2
v -0.2 0.6 -0.2
v -0.2 0.7 -0.2
v -0.1 0.7 -0.2
v -0.1 0.8 -0.2
v 0.1 0.7 -0.2
v 0.1 0.8 -0.2
v 0.2 0 -0.2
v 0.2 0.1 -0.2
v 0.2 0.6 -0.2
v 0.2 0.7 -0.2
v 0.3 0 -0.2
v 0.3 0.1 -0.2
v 0.3 0.6 -0.2
v 0.3 0.7 -0.2
v -0.4 0.1 -0.3
v -0.4 0.2 -0.3
v -0.3 0.2 -0.3
v -0.2 0.1 -0.3
v -0.2 0.2 -0.3
v -0.2 0.6 -0.3
v -0.2 0.7 -0.3
v -0.1 0.6 -0.3
v -0.1 0.7 -0.3
v 0.1 0.6 -0.3
v 0.1 0.7 -0.3
v 0.2 0.1 -0.3
v 0.2 0.2 -0.3
v 0.2 0.6 -0.3
v 0.2 0.7 -0.3
v 0.3 0.2 -0.3
v 0.4 0.1 -0.3
v 0.4 0.2 -0.3
v -0.4 0.3 -0.4
v -0.4 0.5 -0.4
v -0.3 0.2 -0.4
v -0.3 0.3 -0.4
v -0.3 0.5 -0.4
v -0.3 0.6 -0.4
v -0.2 0 -0.4
v -0.2 0.1 -0.4
v -0.2 0.2 -0.4
v -0.2 0.3 -0.4
v -0.2 0.5 -0.4
v -0.2 0.6 -0.4
v -0.1 0 -0.4
v -0.1 0.1 -0.4
v -0.1 0.6 -0.4
v -0.1 0.7 -0.4
v 0.1 0 -0.4
v 0.1 0.1 -0.4
v 0.1 0.6 -0.4
v 0.1 0.7 -0.4
v 0.2 0 -0.4
v 0.2 0.1 -0.4
v 0.2 0.2 -0.4
v 0.2 0.3 -0.4
v 0.2 0.5 -0.4
v 0.2 0.6 -0.4
v 0.3 0.2 -0.4
v 0.3 0.3 -0.4
v 0.3 0.5 -0.4
v 0.3 0.6 -0.4
v 0.4 0.3 -0.4
v 0.4 0.5 -0.4
v -0.3 0.3 -0.5
v -0.3 0.5 -0.5
v -0.2 0.1 -0.5
v -0.2 0.2 -0.5
v -0.2 0.4 -0.5
v -0.2 0.5 -0.5
v -0.2 0.6 -0.5
v -0.1 0 -0.5
v -0.1 0.1 -0.5
v -0.1 0.4 -0.5
v -0.1 0.5 -0.5
v 0.1 0 -0.5
v 0.1 0.1 -0.5
v 0.1 0.4 -0.5
v 0.1 0.5 -0.5
v 0.2 0.1 -0.5
v 0.2 0.2 -0.5
v 0.2 0.4 -0.5
v 0.2 0.5 -0.5
v 0.2 0.6 -0.5
v 0.3 0.3 -0.5
v 0.3 0.5 -0.5
v -0.4 0 0.5
v 0.4 0 0.5
v -0.4 0 0.4
v -0.3 0 0.4
v 0.3 0 0.4
v 0.4 0 0.4
v -0.3 0 -0.2
v -0.2 0 -0.2
v 0.2 0 -0.2
v 0.3 0 -0.2
v -0.2 0 -0.4
v -0.1 0 -0.4
v 0.1 0 -0.4
v 0.2 0 -0.4
v -0.1 0 -0.5
v 0.1 0 -0.5
v -0.5 0.1 0.5
v -0.4 0.1 0.5
v 0.4 0.1 0.5
v 0.5 0.1 0.5
v -0.5 0.1 0.4
v -0.4 0.1 0.4
v -0.3 0.1 0.4
v 0.3 0.1 0.4
v 0.4 0.1 0.4
v 0.5 0.1 0.4
v -0.3 0.1 -0.2
v -0.2 0.1 -0.2
v 0.2 0.1 -0.2
v 0.3 0.1 -0.2
v -0.4 0.1 -0.3
v -0.2 0.1 -0.3
v 0.2 0.1 -0.3
v 0.4 0.1 -0.3
v -0.2 0.1 -0.4
v -0.1 0.1 -0.4
v 0.1 0.1 -0.4
v 0.2 0.1 -0.4
v -0.2 0.1 -0.5
v -0.1 0.1 -0.5
v 0.1 0.1 -0.5
v 0.2 0.1 -0.5
v -0.3 0.2 -0.3
v -0.2 0.2 -0.3
v 0.2 0.2 -0.3
v 0.3 0.2 -0.3
v -0.3 0.2 -0.4
v -0.2 0.2 -0.4
v 0.2 0.2 -0.4
v 0.3 0.2 -0.4
v -0.2 0.3 0.2
v 0.2 0.3 0.2
v -0.2 0.3 0.1
v 0.2 0.3 0.1
v -0.4 0.3 0
v -0.3 0.3 0
v -0.2 0.3 0
v 0.2 0.3 0
v 0.3 0.3 0
v 0.4 0.3 0
v -0.3 0.3 -0.3
v -0.2 0.3 -0.3
v -0.1 0.3 -0.3
v 0.1 0.3 -0.3
v 0.2 0.3 -0.3
v 0.3 0.3 -0.3
v -0.4 0.3 -0.4
v -0.3 0.3 -0.4
v -0.2 0.3 -0.4
v -0.1 0.3 -0.4
v 0.1 0.3 -0.4
v 0.2 0.3 -0.4
v 0.3 0.3 -0.4
v 0.4 0.3 -0.4
v -0.3 0.3 -0.5
v 0.3 0.3 -0.5
v -0.4 0.4 0.3
v -0.3 0.4 0.3
v 0.3 0.4 0.3
v 0.4 0.4 0.3
v -0.3 0.4 0.1
v -0.2 0.4 0.1
v 0.2 0.4 0.1
v 0.3 0.4 0.1
v -0.4 0.4 0
v -0.3 0.4 0
v -0.2 0.4 0
v 0.2 0.4 0
v 0.3 0.4 0
v 0.4 0.4 0
v -0.2 0.4 -0.3
v -0.1 0.4 -0.3
v 0.1 0.4 -0.3
v 0.2 0.4 -0.3
v -0.1 0.4 -0.4
v 0.1 0.4 -0.4
v -0.2 0.2 0.2
v 0.2 0.2 0.2
v -0.4 0.2 0.1
v -0.3 0.2 0.1
v -0.2 0.2 0.1
v 0.2 0.2 0.1
v 0.3 0.2 0.1
v 0.4 0.2 0.1
v -0.3 0.2 -0.2
v -0.2 0.2 -0.2
v -0.1 0.2 -0.2
v 0.1 0.2 -0.2
v 0.2 0.2 -0.2
v 0.3 0.2 -0.2
v -0.4 0.2 -0.3
v -0.3 0.2 -0.3
v -0.2 0.2 -0.3
v -0.1 0.2 -0.3
v 0.1 0.2 -0.3
v 0.2 0.2 -0.3
v 0.3 0.2 -0.3
v 0.4 0.2 -0.3
v -0.2 0.2 -0.4
v -0.1 0.2 -0.4
v 0.1 0.2 -0.4
v 0.2 0.2 -0.4
v -0.2 0.2 -0.5
v 0.2 0.2 -0.5
v -0.4 0.3 0.3
v -0.3 0.3 0.3
v 0.3 0.3 0.3
v 0.4 0.3 0.3
v -0.4 0.3 0.1
v -0.3 0.3 0.1
v 0.3 0.3 0.1
v 0.4 0.3 0.1
v -0.4 0.5 0.2
v -0.3 0.5 0.2
v 0.3 0.5 0.2
v 0.4 0.5 0.2
v -0.3 0.5 0.1
v 0.3 0.5 0.1
v -0.3 0.5 0
v 0.3 0.5 0
v -0.3 0.5 -0.1
v 0.3 0.5 -0.1
v -0.4 0.5 -0.4
v -0.3 0.5 -0.4
v -0.2 0.5 -0.4
v 0.2 0.5 -0.4
v 0.3 0.5 -0.4
v 0.4 0.5 -0.4
v -0.3 0.5 -0.5
v -0.2 0.5 -0.5
v 0.2 0.5 -0.5
v 0.3 0.5 -0.5
v -0.4 0.6 0.3
v -0.3 0.6 0.3
v 0.3 0.6 0.3
v 0.4 0.6 0.3
v -0.4 0.6 0.2
v -0.3 0.6 0.2
v 0.3 0.6 0.2
v 0.4 0.6 0.2
v -0.3 0.6 -0.2
v -0.2 0.6 -0.2
v 0.2 0.6 -0.2
v 0.3 0.6 -0.2
v -0.2 0.6 -0.3
v -0.1 0.6 -0.3
v 0.1 0.6 -0.3
v 0.2 0.6 -0.3
v -0.3 0.6 -0.4
v -0.2 0.6 -0.4
v -0.1 0.6 -0.4
v 0.1 0.6 -0.4
v 0.2 0.6 -0.4
v 0.3 0.6 -0.4
v -0.2 0.6 -0.5
v 0.2 0.6 -0.5
v -0.5 0.7 0.5
v -0.4 0.7 0.5
v 0.4 0.7 0.5
v 0.5 0.7 0.5
v -0.5 0.7 0.4
v -0.4 0.7 0.4
v 0.4 0.7 0.4
v 0.5 0.7 0.4
v -0.3 0.7 -0.1
v -0.1 0.7 -0.1
v 0.1 0.7 -0.1
v 0.3 0.7 -0.1
v -0.3 0.7 -0.2
v -0.2 0.7 -0.2
v -0.1 0.7 -0.2
v 0.1 0.7 -0.2
v 0.2 0.7 -0.2
v 0.3 0.7 -0.2
v -0.2 0.7 -0.3
v -0.1 0.7 -0.3
v 0.1 0.7 -0.3
v 0.2 0.7 -0.3
v -0.1 0.7 -0.4
v 0.1 0.7 -0.4
v -0.4 0.8 0.5
v -0.3 0.8 0.5
v 0.3 0.8 0.5
v 0.4 0.8 0.5
v -0.3 0.8 0.4
v -0.2 0.8 0.4
v 0.2 0.8 0.4
v 0.3 0.8 0.4
v -0.4 0.8 0.3
v -0.3 0.8 0.3
v -0.2 0.8 0.3
v -0.1 0.8 0.3
v 0.1 0.8 0.3
v 0.2 0.8 0.3
v 0.3 0.8 0.3
v 0.4 0.8 0.3
v -0.1 0.8 0.1
v 0.1 0.8 0.1
v -0.3 0.8 -0.1
v -0.1 0.8 -0.1
v 0.1 0.8 -0.1
v 0.3 0.8 -0.1
v -0.1 0.8 -0.2
v 0.1 0.8 -0.2
v -0.3 0.9 0.5
v 0.3 0.9 0.5
v -0.3 0.9 0.4
v -0.2 0.9 0.4
v 0.2 0.9 0.4
v 0.3 0.9 0.4
v -0.2 0.9 0.3
v -0.1 0.9 0.3
v 0.1 0.9 0.3
v 0.2 0.9 0.3
v -0.1 0.9 0.1
v 0.1 0.9 0.1

# faces
f 3/1/1 2/1/1 1/1/1
f 4/1/1 2/1/1 3/1/1
f 7/1/1 6/1/1 5/1/1
f 8/1/1 6/1/1 7/1/1
f 10/1/1 9/1/1 8/1/1
f 11/1/1 9/1/1 10/1/1
f 12/1/1 10/1/1 8/1/1
f 13/1/1 10/1/1 12/1/1
f 16/1/1 12/1/1 8/1/1
f 17/1/1 15/1/1 14/1/1
f 18/1/1 17/1/1 16/1/1
f 19/1/1 15/1/1 17/1/1
f 19/1/1 17/1/1 18/1/1
f 20/1/1 16/1/1 8/1/1
f 20/1/1 18/1/1 16/1/1
f 21/1/1 18/1/1 20/1/1
f 23/1/1 20/1/1 8/1/1
f 24/1/1 23/1/1 22/1/1
f 25/1/1 20/1/1 23/1/1
f 25/1/1 23/1/1 24/1/1
f 28/1/1 27/1/1 26/1/1
f 29/1/1 27/1/1 28/1/1
f 34/6/1 31/6/1 30/6/1
f 35/6/1 31/6/1 34/6/1
f 37/4/1 33/4/1 32/4/1
f 38/4/1 33/4/1 37/4/1
f 43/1/1 36/1/1 35/1/1
f 44/1/1 36/1/1 43/1/1
f 46/2/1 40/2/1 39/2/1
f 47/1/1 43/1/1 42/1/1
f 48/1/1 43/1/1 47/1/1
f 49/1/1 46/1/1 45/1/1
f 49/2/1 40/2/1 46/2/1
f 50/7/1 41/7/1 40/7/1
f 50/2/1 40/2/1 49/2/1
f 51/2/1 42/2/1 41/2/1
f 51/7/1 41/7/1 50/7/1
f 52/1/1 47/1/1 42/1/1
f 52/2/1 42/2/1 51/2/1
f 53/1/1 47/1/1 52/1/1
f 56/1/1 50/1/1 49/1/1
f 56/1/1 49/1/1 45/1/1
f 56/1/1 51/1/1 50/1/1
f 56/1/1 52/1/1 51/1/1
f 57/1/1 52/1/1 56/1/1
f 58/1/1 55/1/1 54/1/1
f 59/1/1 55/1/1 58/1/1
f 62/1/1 61/1/1 60/1/1
f 63/1/1 61/1/1 62/1/1
f 64/1/1 61/1/1 63/1/1
f 66/1/1 65/1/1 64/1/1
f 66/1/1 64/1/1 63/1/1
f 67/1/1 65/1/1 66/1/1
f 68/1/1 65/1/1 67/1/1
f 71/4/1 70/4/1 69/4/1
f 72/4/1 70/4/1 71/4/1
f 77/1/1 74/1/1 73/1/1
f 78/1/1 74/1/1 77/1/1
f 79/1/1 76/1/1 75/1/1
f 80/1/1 76/1/1 79/1/1
f 83/1/1 82/1/1 81/1/1
f 84/1/1 82/1/1 83/1/1
f 87/1/1 86/1/1 85/1/1
f 88/1/1 86/1/1 87/1/1
f 93/1/1 90/1/1 89/1/1
f 94/1/1 90/1/1 93/1/1
f 97/1/1 92/1/1 91/1/1
f 98/1/1 92/1/1 97/1/1
f 99/1/1 96/1/1 95/1/1
f 100/1/1 96/1/1 99/1/1
f 103/6/1 102/6/1 101/6/1
f 104/6/1 102/6/1 103/6/1
f 109/4/1 106/4/1 105/4/1
f 110/4/1 106/4/1 109/4/1
f 112/6/1 108/6/1 107/6/1
f 113/6/1 108/6/1 112/6/1
f 114/4/1 112/4/1 111/4/1
f 115/4/1 112/4/1 114/4/1
f 116/4/2 117/4/2 120/4/2
f 120/4/2 117/4/2 121/4/2
f 118/6/2 119/6/2 123/6/2
f 123/6/2 119/6/2 124/6/2
f 122/4/2 123/4/2 125/4/2
f 125/4/2 123/4/2 126/4/2
f 127/6/2 128/6/2 129/6/2
f 129/6/2 128/6/2 130/6/2
f 131/1/2 132/1/2 133/1/2
f 133/1/2 132/1/2 134/1/2
f 135/1/2 136/1/2 139/1/2
f 139/1/2 136/1/2 140/1/2
f 137/1/2 138/1/2 143/1/2
f 143/1/2 138/1/2 144/1/2
f 141/1/2 142/1/2 145/1/2
f 145/1/2 142/1/2 146/1/2
f 147/1/2 148/1/2 149/1/2
f 149/1/2 148/1/2 150/1/2
f 150/1/2 148/1/2 151/1/2
f 151/1/2 152/1/2 153/1/2
f 150/1/2 151/1/2 153/1/2
f 153/1/2 152/1/2 154/1/2
f 154/1/2 152/1/2 155/1/2
f 156/4/2 157/4/2 158/4/2
f 158/4/2 157/4/2 159/4/2
f 160/1/2 161/1/2 164/1/2
f 164/1/2 161/1/2 165/1/2
f 162/1/2 163/1/2 166/1/2
f 166/1/2 163/1/2 167/1/2
f 168/1/2 169/1/2 170/1/2
f 170/1/2 169/1/2 171/1/2
f 172/1/2 173/1/2 174/1/2
f 174/1/2 173/1/2 175/1/2
f 176/6/2 177/6/2 180/6/2
f 180/6/2 177/6/2 181/6/2
f 178/4/2 179/4/2 183/4/2
f 183/4/2 179/4/2 184/4/2
f 181/1/2 182/1/2 189/1/2
f 189/1/2 182/1/2 190/1/2
f 185/2/2 186/2/2 192/2/2
f 188/1/2 189/1/2 193/1/2
f 193/1/2 189/1/2 194/1/2
f 191/1/2 192/1/2 195/1/2
f 192/2/2 186/2/2 195/2/2
f 186/7/2 187/7/2 196/7/2
f 195/2/2 186/2/2 196/2/2
f 187/2/2 188/2/2 197/2/2
f 196/7/2 187/7/2 197/7/2
f 188/1/2 193/1/2 198/1/2
f 197/2/2 188/2/2 198/2/2
f 198/1/2 193/1/2 199/1/2
f 195/1/2 196/1/2 202/1/2
f 191/1/2 195/1/2 202/1/2
f 196/1/2 197/1/2 202/1/2
f 197/1/2 198/1/2 202/1/2
f 202/1/2 198/1/2 203/1/2
f 200/1/2 201/1/2 204/1/2
f 204/1/2 201/1/2 205/1/2
f 206/1/2 207/1/2 208/1/2
f 208/1/2 207/1/2 209/1/2
f 209/1/2 210/1/2 211/1/2
f 211/1/2 210/1/2 212/1/2
f 209/1/2 211/1/2 213/1/2
f 213/1/2 211/1/2 214/1/2
f 209/1/2 213/1/2 217/1/2
f 215/1/2 216/1/2 218/1/2
f 217/1/2 218/1/2 219/1/2
f 218/1/2 216/1/2 220/1/2
f 219/1/2 218/1/2 220/1/2
f 209/1/2 217/1/2 221/1/2
f 217/1/2 219/1/2 221/1/2
f 221/1/2 219/1/2 222/1/2
f 209/1/2 221/1/2 224/1/2
f 223/1/2 224/1/2 225/1/2
f 224/1/2 221/1/2 226/1/2
f 225/1/2 224/1/2 226/1/2
f 227/1/2 228/1/2 229/1/2
f 229/1/2 228/1/2 230/1/2
f 234/1/3 232/1/3 231/1/3
f 235/1/3 232/1/3 234/1/3
f 237/1/3 234/1/3 233/1/3
f 237/1/3 236/1/3 235/1/3
f 237/1/3 235/1/3 234/1/3
f 239/1/3 237/1/3 233/1/3
f 239/1/3 238/1/3 237/1/3
f 240/1/3 238/1/3 239/1/3
f 241/1/3 239/1/3 233/1/3
f 242/1/3 239/1/3 241/1/3
f 243/1/3 239/1/3 242/1/3
f 244/1/3 239/1/3 243/1/3
f 245/1/3 243/1/3 242/1/3
f 246/1/3 243/1/3 245/1/3
f 249/1/3 248/1/3 247/1/3
f 250/1/3 248/1/3 249/1/3
f 251/4/3 250/4/3 249/4/3
f 252/4/3 250/4/3 251/4/3
f 255/4/3 254/4/3 253/4/3
f 256/4/3 254/4/3 255/4/3
f 257/1/3 256/1/3 255/1/3
f 258/1/3 256/1/3 257/1/3
f 261/6/3 260/6/3 259/6/3
f 262/6/3 260/6/3 261/6/3
f 264/6/3 263/6/3 262/6/3
f 265/6/3 263/6/3 264/6/3
f 269/6/3 267/6/3 266/6/3
f 270/6/3 267/6/3 269/6/3
f 271/6/3 269/6/3 268/6/3
f 272/6/3 269/6/3 271/6/3
f 275/1/3 274/1/3 273/1/3
f 276/1/3 274/1/3 275/1/3
f 277/1/4 278/1/4 280/1/4
f 280/1/4 278/1/4 281/1/4
f 279/1/4 280/1/4 282/1/4
f 282/1/4 280/1/4 283/1/4
f 284/1/4 285/1/4 286/1/4
f 286/1/4 285/1/4 287/1/4
f 288/1/4 289/1/4 292/1/4
f 292/1/4 289/1/4 293/1/4
f 290/1/4 291/1/4 294/1/4
f 294/1/4 291/1/4 295/1/4
f 295/1/4 296/1/4 297/1/4
f 297/1/4 296/1/4 298/1/4
f 299/1/4 300/1/4 303/1/4
f 303/1/4 300/1/4 304/1/4
f 301/1/4 302/1/4 305/1/4
f 305/1/4 302/1/4 306/1/4
f 307/1/4 308/1/4 309/1/4
f 309/1/4 308/1/4 310/1/4
f 311/1/4 312/1/4 313/1/4
f 313/1/4 312/1/4 314/1/4
f 315/1/4 316/1/4 319/1/4
f 319/1/4 316/1/4 320/1/4
f 317/1/4 318/1/4 321/1/4
f 321/1/4 318/1/4 322/1/4
f 323/1/4 324/1/4 325/1/4
f 325/1/4 324/1/4 326/1/4
f 327/5/4 328/5/4 329/5/4
f 329/5/4 328/5/4 330/5/4
f 331/1/4 332/1/4 333/1/4
f 333/1/4 332/1/4 334/1/4
f 335/1/4 336/1/4 337/1/4
f 337/1/4 336/1/4 338/1/4
f 337/4/4 338/4/4 340/4/4
f 338/4/4 339/4/4 340/4/4
f 340/4/4 339/4/4 341/4/4
f 341/4/4 339/4/4 342/4/4
f 343/1/4 344/1/4 345/1/4
f 345/1/4 344/1/4 346/1/4
f 347/4/4 348/4/4 350/4/4
f 348/4/4 349/4/4 350/4/4
f 350/4/4 349/4/4 351/4/4
f 351/4/4 349/4/4 352/4/4
f 350/1/4 351/1/4 353/1/4
f 353/1/4 351/1/4 354/1/4
f 355/4/4 356/4/4 357/4/4
f 357/4/4 356/4/4 358/4/4
f 359/1/4 360/1/4 361/1/4
f 361/1/4 360/1/4 362/1/4
f 363/1/4 364/1/4 365/1/4
f 365/1/4 364/1/4 366/1/4
f 367/1/4 368/1/4 371/1/4
f 371/1/4 368/1/4 372/1/4
f 369/1/4 370/1/4 373/1/4
f 373/1/4 370/1/4 374/1/4
f 375/1/4 376/1/4 377/1/4
f 377/1/4 376/1/4 378/1/4
f 379/1/4 380/1/4 383/1/4
f 383/1/4 380/1/4 384/1/4
f 381/1/4 382/1/4 385/1/4
f 385/1/4 382/1/4 386/1/4
f 387/1/4 388/1/4 389/1/4
f 387/1/4 389/1/4 390/1/4
f 390/1/4 389/1/4 391/1/4
f 392/1/4 393/1/4 394/1/4
f 394/1/4 393/1/4 395/1/4
f 396/1/4 397/1/4 400/1/4
f 400/1/4 397/1/4 401/1/4
f 398/1/4 399/1/4 402/1/4
f 398/1/4 402/1/4 403/1/4
f 403/1/4 402/1/4 404/1/4
f 405/1/4 406/1/4 408/1/4
f 408/1/4 406/1/4 409/1/4
f 407/6/4 408/6/4 413/6/4
f 413/6/4 408/6/4 414/6/4
f 409/1/4 410/1/4 415/1/4
f 415/1/4 410/1/4 416/1/4
f 411/1/4 412/1/4 417/1/4
f 417/1/4 412/1/4 418/1/4
f 419/1/4 420/1/4 423/1/4
f 423/1/4 420/1/4 424/1/4
f 421/1/4 422/1/4 425/1/4
f 425/1/4 422/1/4 426/1/4
f 427/6/4 428/6/4 431/6/4
f 431/6/4 428/6/4 432/6/4
f 429/1/4 430/1/4 433/1/4
f 433/1/4 430/1/4 434/1/4
f 432/1/4 433/1/4 435/1/4
f 435/1/4 433/1/4 436/1/4
f 437/1/4 438/1/4 441/1/4
f 441/1/4 438/1/4 442/1/4
f 439/1/4 440/1/4 445/1/4
f 437/1/4 441/1/4 446/1/4
f 441/7/4 442/7/4 446/7/4
f 442/1/4 443/1/4 447/1/4
f 446/7/4 442/7/4 447/7/4
f 444/1/4 445/1/4 448/1/4
f 445/1/4 440/1/4 449/1/4
f 448/1/4 445/1/4 449/1/4
f 437/1/4 446/1/4 450/1/4
f 446/1/4 447/1/4 450/1/4
f 447/1/4 443/1/4 451/1/4
f 450/1/4 447/1/4 451/1/4
f 449/1/4 440/1/4 452/1/4
f 452/1/4 440/1/4 453/1/4
f 437/1/4 450/1/4 454/1/4
f 450/7/4 451/7/4 454/7/4
f 451/1/4 443/1/4 455/1/4
f 454/7/4 451/7/4 455/7/4
f 455/1/4 443/1/4 456/1/4
f 437/1/4 454/1/4 457/1/4
f 454/1/4 455/1/4 457/1/4
f 457/1/4 455/1/4 458/1/4
f 461/1/5 460/1/5 459/1/5
f 462/1/5 460/1/5 461/1/5
f 463/1/5 460/1/5 462/1/5
f 464/1/5 460/1/5 463/1/5
f 465/1/5 463/1/5 462/1/5
f 466/1/5 463/1/5 465/1/5
f 467/1/5 463/1/5 466/1/5
f 468/1/5 463/1/5 467/1/5
f 469/1/5 467/1/5 466/1/5
f 470/1/5 467/1/5 469/1/5
f 471/1/5 467/1/5 470/1/5
f 472/1/5 467/1/5 471/1/5
f 473/1/5 471/1/5 470/1/5
f 474/1/5 471/1/5 473/1/5
f 479/1/5 476/1/5 475/1/5
f 480/1/5 476/1/5 479/1/5
f 483/1/5 478/1/5 477/1/5
f 484/1/5 478/1/5 483/1/5
f 485/1/5 481/1/5 480/1/5
f 488/1/5 483/1/5 482/1/5
f 489/1/5 486/1/5 485/1/5
f 489/1/5 485/1/5 480/1/5
f 490/1/5 486/1/5 489/1/5
f 491/1/5 488/1/5 487/1/5
f 492/1/5 483/1/5 488/1/5
f 492/1/5 488/1/5 491/1/5
f 497/1/5 494/1/5 493/1/5
f 498/1/5 494/1/5 497/1/5
f 499/1/5 496/1/5 495/1/5
f 500/1/5 496/1/5 499/1/5
f 505/6/5 502/6/5 501/6/5
f 506/6/5 502/6/5 505/6/5
f 507/6/5 504/6/5 503/6/5
f 508/6/5 504/6/5 507/6/5
f 511/4/5 510/4/5 509/4/5
f 512/4/5 510/4/5 511/4/5
f 515/4/5 512/4/5 511/4/5
f 516/4/5 512/4/5 515/4/5
f 519/1/5 514/1/5 513/1/5
f 519/4/5 515/4/5 514/4/5
f 520/4/5 515/4/5 519/4/5
f 523/4/5 517/4/5 516/4/5
f 524/1/5 518/1/5 517/1/5
f 524/4/5 517/4/5 523/4/5
f 525/1/5 519/1/5 513/1/5
f 526/1/5 519/1/5 525/1/5
f 527/6/5 521/6/5 520/6/5
f 528/6/5 521/6/5 527/6/5
f 529/6/5 523/6/5 522/6/5
f 530/6/5 523/6/5 529/6/5
f 531/1/5 518/1/5 524/1/5
f 532/1/5 518/1/5 531/1/5
f 533/1/5 528/1/5 527/1/5
f 533/1/5 531/1/5 530/1/5
f 533/1/5 530/1/5 529/1/5
f 533/1/5 529/1/5 528/1/5
f 533/1/5 527/1/5 526/1/5
f 534/1/5 531/1/5 533/1/5
f 539/1/5 536/1/5 535/1/5
f 542/1/5 538/1/5 537/1/5
f 543/1/5 540/1/5 539/1/5
f 543/1/5 539/1/5 535/1/5
f 544/1/5 540/1/5 543/1/5
f 545/1/5 540/1/5 544/1/5
f 546/1/5 542/1/5 541/1/5
f 547/1/5 538/1/5 542/1/5
f 547/1/5 542/1/5 546/1/5
f 548/1/5 538/1/5 547/1/5
f 549/4/5 546/4/5 545/4/5
f 550/4/5 546/4/5 549/4/5
f 551/4/5 546/4/5 550/4/5
f 552/4/5 546/4/5 551/4/5
f 553/4/5 551/4/5 550/4/5
f 554/4/5 551/4/5 553/4/5
f 555/3/6 556/3/6 559/3/6
f 559/3/6 556/3/6 560/3/6
f 557/1/6 558/1/6 563/1/6
f 558/4/6 559/4/6 563/4/6
f 559/3/6 560/3/6 564/3/6
f 563/4/6 559/4/6 564/4/6
f 564/3/6 560/3/6 565/3/6
f 565/3/6 560/3/6 566/3/6
f 560/4/6 561/4/6 567/4/6
f 566/3/6 560/3/6 567/3/6
f 561/1/6 562/1/6 568/1/6
f 567/4/6 561/4/6 568/4/6
f 557/1/6 563/1/6 569/1/6
f 563/1/6 564/1/6 569/1/6
f 569/1/6 564/1/6 570/1/6
f 564/4/6 565/4/6 571/4/6
f 570/1/6 564/1/6 571/1/6
f 565/3/6 566/3/6 572/3/6
f 571/4/6 565/4/6 572/4/6
f 566/4/6 567/4/6 573/4/6
f 572/3/6 566/3/6 573/3/6
f 567/1/6 568/1/6 574/1/6
f 573/4/6 567/4/6 574/4/6
f 568/1/6 562/1/6 575/1/6
f 574/1/6 568/1/6 575/1/6
f 575/1/6 562/1/6 576/1/6
f 571/1/6 572/1/6 577/1/6
f 572/4/6 573/4/6 578/4/6
f 577/1/6 572/1/6 578/1/6
f 573/1/6 574/1/6 579/1/6
f 578/4/6 573/4/6 579/4/6
f 579/1/6 574/1/6 580/1/6
f 577/1/6 578/1/6 581/1/6
f 578/1/6 579/1/6 581/1/6
f 579/1/6 580/1/6 581/1/6
f 581/1/6 580/1/6 582/1/6
f 583/1/6 584/1/6 587/1/6
f 587/1/6 584/1/6 588/1/6
f 585/1/6 586/1/6 589/1/6
f 589/1/6 586/1/6 590/1/6
f 591/1/6 592/1/6 595/1/6
f 593/1/6 594/1/6 596/1/6
f 591/1/6 595/1/6 597/1/6
f 596/1/6 594/1/6 598/1/6
f 591/1/6 597/1/6 599/1/6
f 598/1/6 594/1/6 600/1/6
f 591/1/6 599/1/6 601/1/6
f 601/1/6 599/1/6 602/1/6
f 600/1/6 594/1/6 605/1/6
f 605/1/6 594/1/6 606/1/6
f 602/1/6 603/1/6 607/1/6
f 607/1/6 603/1/6 608/1/6
f 604/1/6 605/1/6 609/1/6
f 609/1/6 605/1/6 610/1/6
f 611/1/6 612/1/6 615/1/6
f 615/1/6 612/1/6 616/1/6
f 613/1/6 614/1/6 617/1/6
f 617/1/6 614/1/6 618/1/6
f 619/1/6 620/1/6 623/1/6
f 621/1/6 622/1/6 626/1/6
f 623/1/6 624/1/6 627/1/6
f 619/1/6 623/1/6 627/1/6
f 627/1/6 624/1/6 628/1/6
f 628/1/6 624/1/6 629/1/6
f 625/1/6 626/1/6 630/1/6
f 626/1/6 622/1/6 631/1/6
f 630/1/6 626/1/6 631/1/6
f 631/1/6 622/1/6 632/1/6
f 628/1/6 629/1/6 633/1/6
f 629/1/6 630/1/6 633/1/6
f 630/1/6 631/1/6 633/1/6
f 633/1/6 631/1/6 634/1/6
f 635/1/6 636/1/6 639/1/6
f 639/1/6 636/1/6 640/1/6
f 637/1/6 638/1/6 641/1/6
f 641/1/6 638/1/6 642/1/6
f 643/1/6 644/1/6 647/1/6
f 647/1/6 644/1/6 648/1/6
f 648/1/6 644/1/6 649/1/6
f 645/1/6 646/1/6 650/1/6
f 650/1/6 646/1/6 651/1/6
f 651/1/6 646/1/6 652/1/6
f 648/1/6 649/1/6 653/1/6
f 650/1/6 651/1/6 653/1/6
f 649/1/6 650/1/6 653/1/6
f 653/1/6 651/1/6 654/1/6
f 654/1/6 651/1/6 655/1/6
f 655/1/6 651/1/6 656/1/6
f 654/1/6 655/1/6 657/1/6
f 657/1/6 655/1/6 658/1/6
f 659/1/6 660/1/6 663/1/6
f 661/1/6 662/1/6 666/1/6
f 663/1/6 664/1/6 667/1/6
f 659/1/6 663/1/6 667/1/6
f 667/1/6 664/1/6 668/1/6
f 668/1/6 664/1/6 669/1/6
f 665/1/6 666/1/6 672/1/6
f 666/1/6 662/1/6 673/1/6
f 672/1/6 666/1/6 673/1/6
f 673/1/6 662/1/6 674/1/6
f 669/1/6 670/1/6 675/1/6
f 668/1/6 669/1/6 675/1/6
f 671/1/6 672/1/6 676/1/6
f 672/1/6 673/1/6 676/1/6
f 668/1/6 675/1/6 677/1/6
f 675/1/6 676/1/6 677/1/6
f 677/1/6 676/1/6 678/1/6
f 676/1/6 673/1/6 679/1/6
f 678/1/6 676/1/6 679/1/6
f 679/1/6 673/1/6 680/1/6
f 678/1/6 679/1/6 681/1/6
f 681/1/6 679/1/6 682/1/6
f 683/1/6 684/1/6 685/1/6
f 685/1/6 684/1/6 686/1/6
f 686/1/6 684/1/6 687/1/6
f 687/1/6 684/1/6 688/1/6
f 686/1/6 687/1/6 689/1/6
f 689/1/6 687/1/6 690/1/6
f 690/1/6 687/1/6 691/1/6
f 691/1/6 687/1/6 692/1/6
f 690/1/6 691/1/6 693/1/6
f 693/1/6 691/1/6 694/1/6
